<?xml version="1.0" encoding="utf-8"?>
<!-- Generator: Adobe Illustrator 24.1.2, SVG Export Plug-In . SVG Version: 6.00 Build 0)  -->
<svg version="1.2" baseProfile="tiny" xmlns="http://www.w3.org/2000/svg" xmlns:xlink="http://www.w3.org/1999/xlink" x="0px"
	 y="0px" viewBox="0 0 160 160" overflow="visible" xml:space="preserve">
<g id="Temps_d_x27_attente">
</g>
<g id="Calque_5">
</g>
<g id="Ardoise">
</g>
<g id="Logos">
	<g>
		<path fill="#0A0082" d="M137.8044891,90.9934158c0-8.1953506-4.6068573-12.9944153-10.4028854-16.1935806l-4.4041672-2.3995285
			c-2.5968704-1.4023514-4.7990646-3.604538-4.7990646-6.4036713c0-3.1993752,2.5968781-5.4015656,6.3987503-5.4015656
			c2.602005,0,5.0013275,1.002533,6.8036957,1.8023758c2.7993469,1.3969994,4.6015167-0.4000282,5.3960114-3.3967171
			c1.0076599-3.4018745-0.3946838-4.6015091-2.7993469-5.8011665c-2.3995361-1.1998749-5.7960358-2.0048485-9.1927567-2.0048485
			c-9.4057007,0-17.2065811,6.2011948-17.2065811,16.2040291c0,7.8009109,3.9992218,12.2050781,10.4030991,15.7991333
			l4.5961609,2.602005c2.8046951,1.599472,4.6017227,3.7965317,4.6017227,6.7983551
			c0,3.7965317-3.5994034,5.5989075-7.2037277,5.5989075c-2.7939987,0-6.1960602-1.1998749-7.9982224-1.9997177
			c-2.9966888-1.4021301-4.5963745,0.3998108-5.5984802,3.604538c-1.002533,3.3964996,0.6022873,4.7988205,3.2042923,5.9985046
			c2.3941879,1.1945267,6.5958786,2.1970596,10.3924103,2.1970596
			C129.7957916,107.9975281,137.8044891,101.4016495,137.8044891,90.9934158 M102.7943726,88.9992599V55.7962227
			c0-2.7993736-2.794426-4.1963501-5.396431-4.1963501c-2.7942123,0-5.3962173,1.3969765-5.3962173,4.1963501v31.800663
			c0,6.3985596-2.0046387,10.6002579-7.1981735,10.6002579c-5.0068817,0-7.4061966-3.9992218-7.4061966-10.6002579v-31.800663
			c0-2.7993736-2.9966888-4.1963501-5.5986938-4.1963501c-3.002037,0-5.5989075,1.3969765-5.5989075,4.1963501v33.0003471
			c0,13.2022095,6.6012268,19.2009583,18.6037979,19.2009583
			C95.5957794,107.9975281,102.7943726,101.8014603,102.7943726,88.9992599 M60.9957428,91.3934402
			c0-9.1978836-6.3985367-12.5946198-9.8001747-13.1968842v-0.1975555
			c4.0041389-2.0046387,8.8083344-5.8011703,8.8083344-12.5997314c0-9.1978874-8.0033569-13.5969238-15.8042412-13.5969238
			H29.2003975c-2.7993469,0-4.3988209,2.1970596-4.3988209,4.5963783v46.7997398
			c0,2.7995605,2.7991314,4.2016907,5.3960056,4.2016907h14.2045517
			C52.9977303,107.4001541,60.9957428,102.7986526,60.9957428,91.3934402 M48.8011703,68.0012741
			c0,5.1988754-4.3990364,7.0010376-9.0005417,7.0010376h-4.2016945v-14.002079h4.2016945
			C44.5994759,61.0002327,48.8011703,62.5999184,48.8011703,68.0012741 M50.400856,90.1988907
			c0,5.4013748-3.0018196,7.9982529-9.4005699,7.9982529h-4.8039818V82.6005096h4.8039818
			C44.9992905,82.6005096,50.400856,83.9977188,50.400856,90.1988907"/>
		<path fill="#0A0082" d="M154.8011169,10.397543H5.2037959C2.3317556,10.397543,0,8.070919,0,5.1988783S2.3317556,0,5.2037959,0
			h149.5973206C157.6731567,0,160,2.326838,160,5.1988783S157.6731567,10.397543,154.8011169,10.397543"/>
		<path fill="#0A0082" d="M154.8011169,159.9970093H5.198451C2.3317556,159.9970093,0,157.6703796,0,154.7983398
			c0-2.8669128,2.3317556-5.1988831,5.198451-5.1988831h149.6026611c2.8720398,0,5.1988831,2.3319702,5.1988831,5.1988831
			C160,157.6703796,157.6731567,159.9970093,154.8011169,159.9970093"/>
	</g>
</g>
</svg>
