<?xml version="1.0" encoding="UTF-8" standalone="no"?>
<!DOCTYPE svg PUBLIC "-//W3C//DTD SVG 1.1//EN" "http://www.w3.org/Graphics/SVG/1.1/DTD/svg11.dtd">
<svg width="100%" height="100%" viewBox="0 0 160 160" version="1.1" xmlns="http://www.w3.org/2000/svg" xmlns:xlink="http://www.w3.org/1999/xlink" xml:space="preserve" xmlns:serif="http://www.serif.com/" style="fill-rule:evenodd;clip-rule:evenodd;stroke-linejoin:round;stroke-miterlimit:2;">
    <g id="Lines">
        <path d="M160,5.16C160,8.008 157.688,10.32 154.84,10.32L5.16,10.32C2.312,10.32 0,8.008 0,5.16C0,2.312 2.312,0 5.16,0L154.84,0C157.688,0 160,2.312 160,5.16Z" style="fill:rgb(10,0,130);"/>
        <g transform="matrix(1,0,0,1,0,149.68)">
            <path d="M160,5.16C160,8.008 157.688,10.32 154.84,10.32L5.16,10.32C2.312,10.32 0,8.008 0,5.16C0,2.312 2.312,0 5.16,0L154.84,0C157.688,0 160,2.312 160,5.16Z" style="fill:rgb(10,0,130);"/>
        </g>
    </g>
    <g id="BUS" transform="matrix(0.691562,0,0,0.840904,6.8262,10.9453)">
        <path d="M73.157,94.51C73.157,96.82 72.839,98.912 72.203,100.787C71.567,102.661 70.688,104.318 69.567,105.757C68.446,107.197 67.107,108.435 65.55,109.473C63.994,110.511 62.278,111.364 60.404,112.034C58.529,112.703 56.529,113.197 54.403,113.515C52.278,113.833 49.909,113.992 47.299,113.992L30.026,113.992C28.921,113.992 27.992,113.666 27.239,113.013C26.486,112.36 26.11,111.297 26.11,109.825L26.11,53.187C26.11,51.714 26.486,50.651 27.239,49.998C27.992,49.346 28.921,49.019 30.026,49.019L46.345,49.019C50.328,49.019 53.7,49.354 56.462,50.024C59.224,50.693 61.55,51.706 63.441,53.061C65.333,54.417 66.78,56.132 67.785,58.208C68.789,60.283 69.291,62.727 69.291,65.539C69.291,67.112 69.09,68.593 68.688,69.982C68.287,71.371 67.701,72.635 66.931,73.773C66.161,74.911 65.215,75.916 64.094,76.786C62.973,77.656 61.692,78.359 60.253,78.895C62.094,79.229 63.793,79.815 65.349,80.652C66.906,81.489 68.262,82.568 69.416,83.891C70.571,85.213 71.483,86.761 72.153,88.535C72.822,90.309 73.157,92.301 73.157,94.51ZM56.085,67.145C56.085,65.84 55.885,64.668 55.483,63.631C55.081,62.593 54.479,61.731 53.675,61.045C52.872,60.359 51.859,59.831 50.638,59.463C49.416,59.095 47.784,58.911 45.742,58.911L39.064,58.911L39.064,75.782L46.445,75.782C48.353,75.782 49.876,75.556 51.014,75.104C52.152,74.652 53.098,74.033 53.851,73.246C54.604,72.459 55.165,71.539 55.533,70.484C55.901,69.43 56.085,68.317 56.085,67.145ZM59.45,94.962C59.45,93.456 59.198,92.108 58.696,90.92C58.194,89.732 57.458,88.736 56.487,87.933C55.516,87.129 54.278,86.51 52.771,86.075C51.265,85.64 49.307,85.422 46.897,85.422L39.064,85.422L39.064,103.9L48.604,103.9C50.445,103.9 51.993,103.707 53.248,103.322C54.504,102.937 55.592,102.368 56.512,101.615C57.433,100.862 58.152,99.925 58.671,98.803C59.19,97.682 59.45,96.402 59.45,94.962Z" style="fill:rgb(10,0,130);fill-rule:nonzero;"/>
        <path d="M136.774,89.79C136.774,93.774 136.188,97.339 135.017,100.485C133.845,103.632 132.121,106.293 129.845,108.469C127.569,110.645 124.757,112.302 121.41,113.44C118.062,114.578 114.213,115.147 109.861,115.147C105.777,115.147 102.112,114.636 98.865,113.615C95.618,112.594 92.873,111.046 90.63,108.971C88.388,106.896 86.672,104.31 85.484,101.213C84.295,98.117 83.701,94.494 83.701,90.343L83.701,50.827C83.701,50.492 83.802,50.191 84.003,49.923C84.203,49.655 84.563,49.438 85.082,49.27C85.601,49.103 86.279,48.969 87.116,48.869C87.952,48.768 89.024,48.718 90.329,48.718C91.601,48.718 92.656,48.768 93.492,48.869C94.329,48.969 94.999,49.103 95.501,49.27C96.003,49.438 96.363,49.655 96.58,49.923C96.798,50.191 96.907,50.492 96.907,50.827L96.907,89.188C96.907,91.765 97.225,94 97.861,95.891C98.497,97.782 99.409,99.347 100.597,100.586C101.786,101.824 103.208,102.753 104.865,103.372C106.522,103.992 108.372,104.301 110.413,104.301C112.489,104.301 114.347,103.983 115.987,103.347C117.627,102.711 119.016,101.782 120.154,100.561C121.292,99.339 122.171,97.833 122.79,96.042C123.41,94.251 123.719,92.217 123.719,89.941L123.719,50.827C123.719,50.492 123.82,50.191 124.021,49.923C124.221,49.655 124.573,49.438 125.075,49.27C125.577,49.103 126.255,48.969 127.108,48.869C127.962,48.768 129.025,48.718 130.297,48.718C131.569,48.718 132.615,48.768 133.435,48.869C134.255,48.969 134.916,49.103 135.418,49.27C135.92,49.438 136.272,49.655 136.473,49.923C136.674,50.191 136.774,50.492 136.774,50.827L136.774,89.79Z" style="fill:rgb(10,0,130);fill-rule:nonzero;"/>
        <path d="M189.395,94.51C189.395,97.925 188.759,100.92 187.487,103.498C186.215,106.075 184.491,108.226 182.315,109.95C180.139,111.674 177.595,112.971 174.683,113.841C171.771,114.712 168.658,115.147 165.344,115.147C163.101,115.147 161.017,114.963 159.093,114.595C157.168,114.226 155.469,113.783 153.996,113.264C152.523,112.745 151.293,112.201 150.306,111.632C149.318,111.063 148.607,110.561 148.172,110.126C147.737,109.691 147.427,109.063 147.243,108.243C147.059,107.423 146.967,106.243 146.967,104.703C146.967,103.665 147,102.795 147.067,102.092C147.134,101.389 147.243,100.82 147.394,100.385C147.544,99.95 147.745,99.64 147.996,99.456C148.247,99.272 148.54,99.18 148.875,99.18C149.343,99.18 150.005,99.456 150.858,100.008C151.712,100.561 152.808,101.172 154.147,101.841C155.486,102.51 157.084,103.121 158.942,103.674C160.8,104.226 162.951,104.502 165.394,104.502C167.001,104.502 168.44,104.31 169.712,103.925C170.984,103.54 172.064,102.996 172.951,102.293C173.838,101.59 174.516,100.72 174.984,99.682C175.453,98.644 175.687,97.489 175.687,96.217C175.687,94.745 175.286,93.481 174.482,92.426C173.679,91.372 172.633,90.435 171.344,89.615C170.055,88.795 168.591,88.025 166.951,87.305C165.31,86.585 163.62,85.824 161.879,85.02C160.139,84.217 158.448,83.305 156.808,82.284C155.168,81.263 153.703,80.041 152.415,78.619C151.126,77.196 150.08,75.514 149.277,73.572C148.473,71.631 148.071,69.304 148.071,66.593C148.071,63.48 148.649,60.744 149.804,58.384C150.959,56.024 152.515,54.065 154.473,52.509C156.432,50.952 158.741,49.789 161.402,49.019C164.064,48.249 166.884,47.864 169.863,47.864C171.403,47.864 172.943,47.982 174.482,48.216C176.022,48.45 177.461,48.768 178.8,49.17C180.139,49.572 181.328,50.024 182.365,50.526C183.403,51.028 184.089,51.446 184.424,51.781C184.759,52.116 184.985,52.4 185.102,52.634C185.219,52.869 185.319,53.178 185.403,53.563C185.487,53.948 185.545,54.434 185.579,55.019C185.612,55.605 185.629,56.333 185.629,57.204C185.629,58.174 185.604,58.995 185.554,59.664C185.504,60.333 185.42,60.886 185.303,61.321C185.186,61.756 185.018,62.074 184.801,62.275C184.583,62.476 184.29,62.576 183.922,62.576C183.554,62.576 182.968,62.342 182.165,61.873C181.361,61.405 180.374,60.894 179.202,60.342C178.031,59.79 176.675,59.287 175.135,58.836C173.595,58.384 171.905,58.158 170.064,58.158C168.624,58.158 167.369,58.333 166.298,58.685C165.227,59.036 164.331,59.522 163.612,60.141C162.892,60.76 162.356,61.505 162.005,62.375C161.653,63.246 161.478,64.166 161.478,65.137C161.478,66.576 161.871,67.823 162.658,68.878C163.444,69.932 164.499,70.869 165.821,71.689C167.143,72.51 168.641,73.279 170.315,73.999C171.989,74.719 173.696,75.48 175.436,76.284C177.177,77.087 178.884,77.999 180.558,79.02C182.232,80.041 183.721,81.263 185.027,82.686C186.332,84.108 187.386,85.782 188.19,87.707C188.993,89.631 189.395,91.899 189.395,94.51Z" style="fill:rgb(10,0,130);fill-rule:nonzero;"/>
    </g>
</svg>
