<?xml version="1.0" encoding="UTF-8" standalone="no"?>
<!DOCTYPE svg PUBLIC "-//W3C//DTD SVG 1.1//EN" "http://www.w3.org/Graphics/SVG/1.1/DTD/svg11.dtd">
<svg width="100%" height="100%" viewBox="0 0 160 160" version="1.1" xmlns="http://www.w3.org/2000/svg" xmlns:xlink="http://www.w3.org/1999/xlink" xml:space="preserve" xmlns:serif="http://www.serif.com/" style="fill-rule:evenodd;clip-rule:evenodd;stroke-linejoin:round;stroke-miterlimit:2;">
    <path id="Circle" d="M80,0C124.153,0 160,35.847 160,80C160,124.153 124.153,160 80,160C35.847,160 0,124.153 0,80C0,35.847 35.847,0 80,0ZM80.019,10.98C41.951,10.98 11.044,41.897 11.044,79.979C11.044,118.061 41.951,148.979 80.019,148.979C118.088,148.979 148.995,118.061 148.995,79.979C148.995,41.897 118.088,10.98 80.019,10.98Z" style="fill:rgb(10,0,130);"/>
    <g transform="matrix(1.07558,0,0,1,-3.27064,0)">
        <g id="M">
            <path d="M53.168,65.169L53.168,115.15C53.168,118.809 50.406,121.78 47.004,121.78C43.602,121.78 40.84,118.809 40.84,115.15L40.84,44.752C40.84,44.74 40.84,44.729 40.84,44.717C40.84,40.046 44.421,36.254 48.832,36.254C52.109,36.254 54.927,38.346 56.16,41.337C56.258,41.511 56.349,41.692 56.432,41.879L77.296,88.529L98.163,41.88C98.454,41.227 98.833,40.649 99.276,40.155C100.697,37.809 103.182,36.254 106.007,36.254C110.418,36.254 113.999,40.046 113.999,44.717C114,44.745 114,44.773 113.999,44.801L114,115.199C114,118.858 111.238,121.829 107.836,121.829C104.433,121.829 101.671,118.858 101.671,115.199L101.671,64.62L83.477,105.295C82.321,107.879 79.808,109.291 77.3,109.018C74.788,109.295 72.271,107.883 71.114,105.296L53.168,65.169Z" style="fill:rgb(10,0,130);"/>
        </g>
    </g>
</svg>
