<?xml version="1.0" encoding="utf-8"?>
<svg version="1.2" baseProfile="tiny" xmlns="http://www.w3.org/2000/svg" xmlns:xlink="http://www.w3.org/1999/xlink" x="0px"
	 y="0px" viewBox="0 0 160 160" overflow="scroll" xml:space="preserve">
<g id="Logos">
		<path fill="#0A0082" d="M160,80.4052963C160,36,122.801796-0.002,80.2016983-0.002C36.0028992-0.002,0,36,0,80.4052963
			C0,124.4042969,36.0028992,160,80.2016983,160C124.4013977,160,160,124.6035004,160,80.4052963z M149.0005035,80.4052963
			c0,37.5996017-30.9942093,68.9980087-68.7988052,68.9980087c-38.0019989,0-69.2032013-31.0010071-69.2032013-68.9980087
			c0-38.2099915,31.2011986-69.8017883,69.2032013-69.8017883
			C118.0062943,10.6035042,149.0005035,42.4043045,149.0005035,80.4052963z M119.801796,115.8037033V46
			c0-4.0009995-2.1972961-8.2011986-8.7968979-8.2011986c-5,0-7.0025024,2.1991997-9.2041016,6.6006012L80.2016983,89.4032974
			h-0.205101L58.206501,44.3994026c-2.2045021-4.4014015-4.2084999-6.6006012-9.2070007-6.6006012
			c-6.6020012,0-8.7993011,4.2001991-8.7993011,8.2011986v69.8037033c0,3.7987976,3.0018997,6.0019989,6.6006012,6.0019989
			c3.2055016,0,6.7977982-2.2032013,6.7977982-6.0019989V63.8027H53.8013l19.8007965,40.3985023
			c1.396904,2.7987976,3.196701,4.3993988,6.3945007,4.3993988c3.2036057,0,5.0024033-1.6006012,6.4013062-4.3993988
			L106.2055969,63.8027h0.1977005v52.0010033c0,3.7987976,3.5947037,6.0019989,6.8013,6.0019989
			C116.7987976,121.8057022,119.801796,119.6025009,119.801796,115.8037033z"/>
</g>
</svg>
