<?xml version="1.0" encoding="utf-8"?>
<!-- Generator: Adobe Illustrator 24.1.2, SVG Export Plug-In . SVG Version: 6.00 Build 0)  -->
<svg version="1.2" baseProfile="tiny" xmlns="http://www.w3.org/2000/svg" xmlns:xlink="http://www.w3.org/1999/xlink" x="0px"
	 y="0px" viewBox="0 0 160 160" overflow="visible" xml:space="preserve">
<g id="Temps_d_x27_attente">
</g>
<g id="Calque_5">
</g>
<g id="Ardoise">
	<g>
		<path fill="#0A0082" d="M123.199295,159.9997711H36.8000565C16.5082817,159.9997711,0,143.4917145,0,123.1999359V36.8000298
			C0,16.508255,16.5082817,0,36.8000565,0h86.3992386C143.4917145,0,160,16.508255,160,36.8000298v86.3999023
			C160,143.4917145,143.4917145,159.9997711,123.199295,159.9997711 M36.8000565,10.3999329
			c-14.5570602,0-26.3997002,11.8430634-26.3997002,26.4000969v86.3999023c0,14.556839,11.842639,26.3994904,26.3997002,26.3994904
			h86.3992386c14.5570679,0,26.4001312-11.8426514,26.4001312-26.3994904V36.8000298
			c0-14.5570335-11.8430634-26.4000969-26.4001312-26.4000969H36.8000565z"/>
		<path fill="#0A0082" d="M48.7992401,68.8010712c0,6.7997513-6.1998978,8.4000702-9.9997368,8.4000702h-3.200428V61.0008583
			h3.8004837C44.3989029,61.0008583,48.7992401,63.2012405,48.7992401,68.8010712 M126.200264,68.8010712
			c0,6.7997513-6.2005386,8.4000702-10.0008087,8.4000702h-3.1993637V61.0008583h3.8004913
			C121.7997208,61.0008583,126.200264,63.2012405,126.200264,68.8010712 M59.998909,67.6009445
			c0-10.7999077-7.9992485-15.7998886-15.7988243-15.7998886h-14.999939c-2.8002357,0-4.4009762,2.1997452-4.4009762,4.6002197
			v46.9990463c0,2.8000183,2.8006592,4.2004547,5.400589,4.2004547c2.9999027,0,5.3993168-1.4004364,5.3993168-4.2004547V85.2003632
			h4.5997925l9.0005608,20.2002487c0.8003693,1.5996552,2.2001686,2.2001648,3.8004837,2.2001648
			c3.2002068,0,7.799366-3.0011749,6.0004425-6.6011658l-8.6003723-17.99897
			C55.5996323,80.4013519,59.998909,75.800705,59.998909,67.6009445 M96.7989655,102.4011307
			c0-2.4000473-1.5996704-4.999794-4.3992691-4.999794H77.1998672V83.600708h12.5998993
			c2.7991638,0,4.3999023-2.4006882,4.3999023-4.6002197c0-2.3994141-1.6007385-4.5995865-4.3999023-4.5995865H77.1998672
			V61.8008041h13.9992599c2.8002396,0,4.4003448-2.7995987,4.4003448-4.9997673
			c0-2.4000511-1.6001053-4.9999809-4.4003448-4.9999809H70.800087c-2.8002243,0-4.3999176,2.1997452-4.3999176,4.6002197
			v46.7998047c0,2.7989578,2.7998199,4.1987534,5.3995285,4.1987534h20.5999985
			C95.199295,107.3998337,96.7989655,104.5996017,96.7989655,102.4011307 M137.4003601,67.6009445
			c0-10.7999077-8.0013733-15.7998886-15.8003082-15.7998886h-15.0008011c-2.7989578,0-4.3992767,2.1997452-4.3992767,4.6002197
			v46.9990463c0,2.8000183,2.8002396,4.2004547,5.3995285,4.2004547c3.0001144,0,5.400589-1.4004364,5.400589-4.2004547V85.2003632
			h4.600235l8.9994812,20.2002487c0.799736,1.5996552,2.2001648,2.2001648,3.7998505,2.2001648
			c3.2004242,0,7.8006439-3.0011749,6.0006561-6.6011658l-8.6010132-17.99897
			C132.9993744,80.4013519,137.4003601,75.800705,137.4003601,67.6009445"/>
	</g>
</g>
</svg>
