<?xml version="1.0" encoding="UTF-8" standalone="no"?>
<!DOCTYPE svg PUBLIC "-//W3C//DTD SVG 1.1//EN" "http://www.w3.org/Graphics/SVG/1.1/DTD/svg11.dtd">
<svg width="100%" height="100%" viewBox="0 0 160 160" version="1.1" xmlns="http://www.w3.org/2000/svg" xmlns:xlink="http://www.w3.org/1999/xlink" xml:space="preserve" xmlns:serif="http://www.serif.com/" style="fill-rule:evenodd;clip-rule:evenodd;stroke-linejoin:round;stroke-miterlimit:2;">
    <path id="Circle" d="M80,0C124.153,0 160,35.847 160,80C160,124.153 124.153,160 80,160C35.847,160 0,124.153 0,80C0,35.847 35.847,0 80,0ZM80.019,10.98C41.951,10.98 11.044,41.897 11.044,79.979C11.044,118.061 41.951,148.979 80.019,148.979C118.088,148.979 148.995,118.061 148.995,79.979C148.995,41.897 118.088,10.98 80.019,10.98Z" style="fill:rgb(10,0,130);"/>
    <g id="RER" transform="matrix(1.3455,0,0,1.55579,55.2567,91.7818)">
        <path d="M3.864,8.812C3.864,9.012 3.828,9.181 3.755,9.317C3.682,9.454 3.509,9.568 3.235,9.659C2.962,9.75 2.561,9.814 2.032,9.851C1.503,9.887 0.783,9.905 -0.128,9.905C-0.894,9.905 -1.504,9.887 -1.96,9.851C-2.416,9.814 -2.776,9.746 -3.04,9.645C-3.305,9.545 -3.491,9.418 -3.601,9.263C-3.71,9.108 -3.801,8.921 -3.874,8.702L-7.046,0.8C-7.429,-0.093 -7.803,-0.886 -8.167,-1.579C-8.532,-2.272 -8.937,-2.851 -9.384,-3.315C-9.831,-3.78 -10.346,-4.131 -10.929,-4.368C-11.512,-4.605 -12.187,-4.724 -12.952,-4.724L-15.194,-4.724L-15.194,8.757C-15.194,8.939 -15.254,9.103 -15.372,9.249C-15.491,9.395 -15.687,9.513 -15.96,9.604C-16.234,9.696 -16.598,9.769 -17.054,9.823C-17.51,9.878 -18.093,9.905 -18.804,9.905C-19.497,9.905 -20.075,9.878 -20.54,9.823C-21.005,9.769 -21.374,9.696 -21.648,9.604C-21.921,9.513 -22.112,9.395 -22.222,9.249C-22.331,9.103 -22.386,8.939 -22.386,8.757L-22.386,-23.372C-22.386,-24.174 -22.181,-24.753 -21.771,-25.108C-21.36,-25.464 -20.855,-25.641 -20.253,-25.641L-11.093,-25.641C-10.163,-25.641 -9.398,-25.623 -8.796,-25.587C-8.194,-25.55 -7.648,-25.505 -7.155,-25.45C-5.734,-25.25 -4.453,-24.903 -3.314,-24.411C-2.174,-23.919 -1.208,-23.276 -0.415,-22.483C0.378,-21.69 0.984,-20.752 1.403,-19.667C1.822,-18.582 2.032,-17.338 2.032,-15.934C2.032,-14.75 1.882,-13.67 1.581,-12.694C1.28,-11.719 0.838,-10.849 0.255,-10.083C-0.329,-9.317 -1.049,-8.652 -1.905,-8.087C-2.762,-7.522 -3.737,-7.066 -4.831,-6.72C-4.303,-6.464 -3.806,-6.155 -3.341,-5.79C-2.876,-5.425 -2.439,-4.983 -2.028,-4.464C-1.618,-3.944 -1.231,-3.352 -0.866,-2.686C-0.502,-2.021 -0.146,-1.269 0.2,-0.431L3.18,6.542C3.454,7.235 3.636,7.741 3.727,8.06C3.819,8.379 3.864,8.629 3.864,8.812ZM-5.405,-15.196C-5.405,-16.363 -5.67,-17.347 -6.198,-18.149C-6.727,-18.951 -7.593,-19.516 -8.796,-19.845C-9.161,-19.936 -9.575,-20.009 -10.04,-20.063C-10.505,-20.118 -11.148,-20.145 -11.968,-20.145L-15.194,-20.145L-15.194,-10.11L-11.53,-10.11C-10.51,-10.11 -9.616,-10.233 -8.851,-10.479C-8.085,-10.726 -7.447,-11.072 -6.937,-11.518C-6.426,-11.965 -6.043,-12.498 -5.788,-13.118C-5.533,-13.738 -5.405,-14.431 -5.405,-15.196Z" style="fill:rgb(10,0,130);fill-rule:nonzero;"/>
        <path d="M30.114,6.925C30.114,7.453 30.091,7.896 30.046,8.251C30,8.606 29.932,8.894 29.841,9.112C29.749,9.331 29.635,9.491 29.499,9.591C29.362,9.691 29.212,9.741 29.048,9.741L11.274,9.741C10.673,9.741 10.167,9.563 9.757,9.208C9.346,8.853 9.141,8.274 9.141,7.472L9.141,-23.372C9.141,-24.174 9.346,-24.753 9.757,-25.108C10.167,-25.464 10.673,-25.641 11.274,-25.641L28.938,-25.641C29.102,-25.641 29.248,-25.596 29.376,-25.505C29.503,-25.414 29.613,-25.254 29.704,-25.026C29.795,-24.798 29.863,-24.507 29.909,-24.151C29.954,-23.796 29.977,-23.345 29.977,-22.798C29.977,-22.287 29.954,-21.854 29.909,-21.499C29.863,-21.143 29.795,-20.856 29.704,-20.638C29.613,-20.419 29.503,-20.259 29.376,-20.159C29.248,-20.059 29.102,-20.009 28.938,-20.009L16.305,-20.009L16.305,-11.368L26.997,-11.368C27.161,-11.368 27.311,-11.318 27.448,-11.218C27.585,-11.117 27.699,-10.962 27.79,-10.753C27.881,-10.543 27.949,-10.261 27.995,-9.905C28.04,-9.55 28.063,-9.117 28.063,-8.606C28.063,-8.078 28.04,-7.64 27.995,-7.294C27.949,-6.948 27.881,-6.67 27.79,-6.46C27.699,-6.25 27.585,-6.1 27.448,-6.009C27.311,-5.918 27.161,-5.872 26.997,-5.872L16.305,-5.872L16.305,4.108L29.048,4.108C29.212,4.108 29.362,4.159 29.499,4.259C29.635,4.359 29.749,4.519 29.841,4.737C29.932,4.956 30,5.243 30.046,5.599C30.091,5.954 30.114,6.396 30.114,6.925Z" style="fill:rgb(10,0,130);fill-rule:nonzero;"/>
        <path d="M62.708,8.812C62.708,9.012 62.671,9.181 62.598,9.317C62.525,9.454 62.352,9.568 62.079,9.659C61.805,9.75 61.404,9.814 60.876,9.851C60.347,9.887 59.627,9.905 58.715,9.905C57.95,9.905 57.339,9.887 56.883,9.851C56.428,9.814 56.068,9.746 55.803,9.645C55.539,9.545 55.352,9.418 55.243,9.263C55.133,9.108 55.042,8.921 54.969,8.702L51.797,0.8C51.415,-0.093 51.041,-0.886 50.676,-1.579C50.312,-2.272 49.906,-2.851 49.46,-3.315C49.013,-3.78 48.498,-4.131 47.915,-4.368C47.331,-4.605 46.657,-4.724 45.891,-4.724L43.649,-4.724L43.649,8.757C43.649,8.939 43.59,9.103 43.471,9.249C43.353,9.395 43.157,9.513 42.883,9.604C42.61,9.696 42.245,9.769 41.79,9.823C41.334,9.878 40.751,9.905 40.04,9.905C39.347,9.905 38.768,9.878 38.303,9.823C37.839,9.769 37.469,9.696 37.196,9.604C36.923,9.513 36.731,9.395 36.622,9.249C36.512,9.103 36.458,8.939 36.458,8.757L36.458,-23.372C36.458,-24.174 36.663,-24.753 37.073,-25.108C37.483,-25.464 37.989,-25.641 38.59,-25.641L47.751,-25.641C48.68,-25.641 49.446,-25.623 50.047,-25.587C50.649,-25.55 51.196,-25.505 51.688,-25.45C53.11,-25.25 54.391,-24.903 55.53,-24.411C56.669,-23.919 57.635,-23.276 58.428,-22.483C59.221,-21.69 59.827,-20.752 60.247,-19.667C60.666,-18.582 60.876,-17.338 60.876,-15.934C60.876,-14.75 60.725,-13.67 60.424,-12.694C60.124,-11.719 59.682,-10.849 59.098,-10.083C58.515,-9.317 57.795,-8.652 56.938,-8.087C56.081,-7.522 55.106,-7.066 54.012,-6.72C54.541,-6.464 55.038,-6.155 55.503,-5.79C55.967,-5.425 56.405,-4.983 56.815,-4.464C57.225,-3.944 57.613,-3.352 57.977,-2.686C58.342,-2.021 58.697,-1.269 59.044,-0.431L62.024,6.542C62.297,7.235 62.48,7.741 62.571,8.06C62.662,8.379 62.708,8.629 62.708,8.812ZM53.438,-15.196C53.438,-16.363 53.174,-17.347 52.645,-18.149C52.116,-18.951 51.251,-19.516 50.047,-19.845C49.683,-19.936 49.268,-20.009 48.803,-20.063C48.339,-20.118 47.696,-20.145 46.876,-20.145L43.649,-20.145L43.649,-10.11L47.313,-10.11C48.334,-10.11 49.227,-10.233 49.993,-10.479C50.758,-10.726 51.396,-11.072 51.907,-11.518C52.417,-11.965 52.8,-12.498 53.055,-13.118C53.31,-13.738 53.438,-14.431 53.438,-15.196Z" style="fill:rgb(10,0,130);fill-rule:nonzero;"/>
    </g>
</svg>
