<?xml version="1.0" encoding="UTF-8" standalone="no"?>
<!DOCTYPE svg PUBLIC "-//W3C//DTD SVG 1.1//EN" "http://www.w3.org/Graphics/SVG/1.1/DTD/svg11.dtd">
<svg width="100%" height="100%" viewBox="0 0 160 160" version="1.1" xmlns="http://www.w3.org/2000/svg" xmlns:xlink="http://www.w3.org/1999/xlink" xml:space="preserve" xmlns:serif="http://www.serif.com/" style="fill-rule:evenodd;clip-rule:evenodd;stroke-linejoin:round;stroke-miterlimit:2;">
    <path id="Circle" d="M80,0C124.153,0 160,35.847 160,80C160,124.153 124.153,160 80,160C35.847,160 0,124.153 0,80C0,35.847 35.847,0 80,0ZM80.019,10.98C41.951,10.98 11.044,41.897 11.044,79.979C11.044,118.061 41.951,148.979 80.019,148.979C118.088,148.979 148.995,118.061 148.995,79.979C148.995,41.897 118.088,10.98 80.019,10.98Z" style="fill:rgb(10,0,130);"/>
    <g transform="matrix(1.07558,0,0,1,29.444,0)">
        <g id="T">
            <path d="M40.84,49.514L16.588,49.514C13.186,49.514 10.424,46.543 10.424,42.884C10.424,39.225 13.186,36.254 16.588,36.254L77.42,36.254C80.822,36.254 83.584,39.225 83.584,42.884C83.584,46.543 80.822,49.514 77.42,49.514L53.168,49.514L53.168,115.15C53.168,118.809 50.406,121.78 47.004,121.78C43.602,121.78 40.84,118.809 40.84,115.15L40.84,49.514Z" style="fill:rgb(10,0,130);"/>
        </g>
    </g>
</svg>
