<?xml version="1.0" encoding="utf-8"?>
<!-- Generator: Adobe Illustrator 24.1.2, SVG Export Plug-In . SVG Version: 6.00 Build 0)  -->
<svg version="1.2" baseProfile="tiny" xmlns="http://www.w3.org/2000/svg" xmlns:xlink="http://www.w3.org/1999/xlink" x="0px"
	 y="0px" viewBox="0 0 160 160" overflow="visible" xml:space="preserve">
<g id="Temps_d_x27_attente">
</g>
<g id="Calque_5">
</g>
<g id="Ardoise">
</g>
<g id="Logos">
	<g>
		<path fill="#0A0082" d="M154.8004913,10.3998404H5.1995015C2.3283091,10.3998404,0,8.0715313,0,5.2003756
			C0,2.3283091,2.3283091,0,5.1995015,0h149.6009827C157.6722717,0,160,2.3283091,160,5.2003756
			C160,8.0715313,157.6722717,10.3998404,154.8004913,10.3998404"/>
		<path fill="#0A0082" d="M154.8004913,160.0005798H5.1995015C2.3277264,160.0005798,0,157.6722717,0,154.8004913
			c0-2.8721008,2.3277264-5.1997833,5.1995015-5.1997833h149.6009827c2.8717804,0,5.1995087,2.3276825,5.1995087,5.1997833
			C160,157.6722717,157.6722717,160.0005798,154.8004913,160.0005798"/>
		<path fill="#0A0082" d="M141.7622528,133.1198273H15.9997673v-6.7203293h125.7624817
			c1.2373047,0,2.2403107,1.003006,2.2403107,2.240303v2.2397156
			C144.0025635,132.1168213,142.9995575,133.1198273,141.7622528,133.1198273"/>
		<path fill="#0A0082" d="M144.0057678,96.9951935c-1.4777069-13.4817505-7.1081848-25.9051285-16.2815552-35.9267654
			c-2.94841-3.2214584-7.1434479-5.0689545-11.5089569-5.0689545H62.5776024l11.6870079-9.6052208
			c0.6285553-0.5163651,0.9933929-1.288002,0.9933929-2.1013412c-0.0005875-0.8138542-0.3654251-1.5849037-0.9933929-2.1018524
			L53.7903519,25.3698254c-0.7739677-0.6355495-1.9162674-0.5236511-2.551815,0.2499866l-1.1548309,1.4054737
			c-0.6346741,0.7716351-0.5227776,1.9113121,0.2488594,2.5451126l17.9209824,14.7231312l-14.243187,11.7059441H15.9953957
			v7.2002754l23.6814384,0.0005798c0.6186485,0,1.1204453,0.5017967,1.1204453,1.1198616v30.560257
			c0,0.6183929-0.5017967,1.1199036-1.1204453,1.1199036l-23.676775-0.0005875V120h104.8001328
			c10.7956009,0,20.1977158-7.2999344,22.8640518-17.751976C144.0311279,100.8111191,144.1791534,98.5746002,144.0057678,96.9951935
			 M64.7986755,111.6804428c0,0.6186523-0.5012131,1.1198654-1.1198616,1.1198654H49.1171227
			c-0.6183586,0-1.1201515-0.5012131-1.1201515-1.1198654V64.3201904c0-0.6180649,0.5017929-1.1198616,1.1201515-1.1198616
			h14.5616913c0.6186485,0,1.1198616,0.5017967,1.1198616,1.1198616V111.6804428z M88.8000793,111.6804428
			c0,0.6186523-0.5018005,1.1198654-1.1204453,1.1198654H73.1185226c-0.6183624,0-1.1198654-0.5012131-1.1198654-1.1198654
			V64.3201904c0-0.6180649,0.501503-1.1198616,1.1198654-1.1198616h14.5611115c0.6186447,0,1.1204453,0.5017967,1.1204453,1.1198616
			V111.6804428z M129.7468414,95.9997635L97.1199188,96.000351c-0.6186447,0-1.1204453-0.5015106-1.1204453-1.1199036v-30.560257
			c0-0.6180649,0.5018005-1.1198616,1.1204453-1.1198616l19.0953369-0.0005798c2.334137,0,4.5747375,0.96101,6.152977,2.6809044
			c6.1051865,6.6533127,10.4406662,14.5042877,12.7876358,23.0499649
			C136.1329346,92.4886475,133.4365845,95.9997635,129.7468414,95.9997635"/>
	</g>
</g>
</svg>
