<?xml version="1.0" encoding="UTF-8" standalone="no"?>
<!DOCTYPE svg PUBLIC "-//W3C//DTD SVG 1.1//EN" "http://www.w3.org/Graphics/SVG/1.1/DTD/svg11.dtd">
<svg width="100%" height="100%" viewBox="0 0 160 160" version="1.1" xmlns="http://www.w3.org/2000/svg" xmlns:xlink="http://www.w3.org/1999/xlink" xml:space="preserve" xmlns:serif="http://www.serif.com/" style="fill-rule:evenodd;clip-rule:evenodd;stroke-linejoin:round;stroke-miterlimit:2;">
    <path id="Square" d="M160,36.8L160,123.2C160,143.51 143.51,160 123.2,160L36.8,160C16.49,160 0,143.51 0,123.2L0,36.8C0,16.49 16.49,0 36.8,0L123.2,0C143.51,0 160,16.49 160,36.8ZM149.039,42.715C149.039,25.194 134.814,10.97 117.293,10.97L42.761,10.97C25.24,10.97 11.016,25.194 11.016,42.715L11.016,117.291C11.016,134.811 25.24,149.036 42.761,149.036L117.293,149.036C134.814,149.036 149.039,134.811 149.039,117.291L149.039,42.715Z" style="fill:rgb(10,0,130);"/>
    <g transform="matrix(0.855697,0,0,1,11.0797,0.0294769)">
        <g id="Rails">
            <path d="M46.655,127.665L40.321,133.558C38.734,135.036 36.043,135.132 34.317,133.774C32.59,132.415 32.477,130.113 34.065,128.635L54.649,109.48C56.237,108.003 58.928,107.906 60.654,109.265C62.381,110.623 62.493,112.926 60.906,114.403L54.47,120.392L106.239,120.392L99.802,114.399C98.215,112.922 98.328,110.619 100.055,109.261C101.782,107.903 104.473,108 106.06,109.477L126.64,128.636C128.227,130.113 128.114,132.416 126.387,133.774C124.66,135.132 121.97,135.035 120.382,133.558L114.052,127.665L46.655,127.665Z" style="fill:rgb(10,0,130);"/>
        </g>
    </g>
    <g id="Train">
        <path id="Train1" serif:id="Train" d="M66.706,25.239L66.706,25.199L93.129,25.199L93.129,25.239C97.06,25.396 99.634,26.16 103.202,29.728C107.515,34.042 108.177,35.761 109.232,37.585C110.286,39.409 110.57,41.02 111.078,42.322C111.585,43.624 115.003,54.53 115.98,60.576C116.725,65.184 117.357,67.611 117.357,72.814C117.357,78.017 115.881,87.802 112.845,97.259C109.809,106.716 104.499,111.674 99.723,113.295C96.778,114.294 94.716,114.656 93.129,114.777L93.129,114.833L66.706,114.833L66.706,114.777C65.119,114.656 63.058,114.294 60.112,113.295C55.336,111.674 50.026,106.716 46.99,97.259C43.955,87.802 42.478,78.017 42.478,72.814C42.478,67.611 43.11,65.184 43.855,60.576C44.832,54.53 48.25,43.624 48.758,42.322C49.265,41.02 49.55,39.409 50.604,37.585C51.658,35.761 52.32,34.042 56.633,29.728C60.202,26.16 62.775,25.396 66.706,25.239ZM61.78,93.325C58.532,93.325 55.895,95.962 55.895,99.211C55.895,102.459 58.532,105.096 61.78,105.096C65.028,105.096 67.666,102.459 67.666,99.211C67.666,95.962 65.028,93.325 61.78,93.325ZM98.121,93.325C94.872,93.325 92.235,95.962 92.235,99.211C92.235,102.459 94.872,105.096 98.121,105.096C101.369,105.096 104.006,102.459 104.006,99.211C104.006,95.962 101.369,93.325 98.121,93.325ZM105.013,42.393L54.748,42.393C54.148,42.393 54.148,42.673 53.906,43.222C53.665,43.77 49.423,53.838 49.423,66.975C49.423,69.712 49.443,70.985 50.529,70.985L109.231,70.985C110.318,70.985 110.338,69.712 110.338,66.975C110.338,53.838 106.096,43.77 105.854,43.222C105.613,42.673 105.612,42.393 105.013,42.393Z" style="fill:rgb(10,0,130);"/>
    </g>
</svg>
