<?xml version="1.0" encoding="utf-8"?>
<!-- Generator: Adobe Illustrator 24.1.2, SVG Export Plug-In . SVG Version: 6.00 Build 0)  -->
<svg version="1.2" baseProfile="tiny" xmlns="http://www.w3.org/2000/svg" xmlns:xlink="http://www.w3.org/1999/xlink" x="0px"
	 y="0px" viewBox="0 0 160 160" overflow="visible" xml:space="preserve">
<g id="Temps_d_x27_attente">
</g>
<g id="Calque_5">
</g>
<g id="Ardoise">
</g>
<g id="Logos">
	<g>
		<path fill="#0A0082" d="M123.1993027,160H36.8000565C16.5082817,160,0,143.4917297,0,123.1999512V36.8000679
			C0,16.5082932,16.5082817,0.0000114,36.8000565,0.0000114h86.3992462C143.4917145,0.0000114,160,16.5082932,160,36.8000679
			v86.3998871C160,143.4917297,143.4917145,160,123.1993027,160 M36.8000565,10.3999443
			c-14.5570583,0-26.3996983,11.8430634-26.3996983,26.4001236v86.3998871
			c0,14.5570374,11.8426399,26.3994904,26.3996983,26.3994904h86.3992462c14.5570602,0,26.4001236-11.842453,26.4001236-26.3994904
			V36.8000679c0-14.5570602-11.8430634-26.4001236-26.4001236-26.4001236H36.8000565z"/>
		<path fill="#0A0082" d="M103.8958893,111.4201889c0.3511124-0.2391815,0.6913986-0.4819641,0.944809-0.7313385
			c2.8737259-2.3210297,5.5586243-5.8933868,7.5083618-11.4288635c2.7256775-7.7583694,4.651619-14.6868668,5.188179-23.2003632
			c0.7355804-10.5044174-3.5891418-26.8404541-6.4560699-34.4603043l-0.9955826-2.6851082
			c-0.6168442-1.706974-2.9684601-5.343029-7.1442795-9.6976986c-3.588501-3.7344494-7.039566-4.0075874-12.2884979-4.0075874
			H69.3446426c-5.2521133,0-8.6991463,0.273138-12.2884941,4.0075874c-4.1826172,4.3478489-6.5306282,7.9873524-7.1408882,9.6976986
			l-0.9983406,2.6984634c-2.8673553,7.6064949-7.1916504,23.9425316-6.4601021,34.4503746
			c0.5265694,8.5032959,2.4593124,15.4215775,5.1985855,23.1969376c1.9393272,5.5388718,4.6210365,9.1078339,7.5019875,11.4288635
			c0.2731628,0.2357788,0.5964546,0.4785614,0.9509735,0.7213516L40.591835,128.6742249
			c-1.2649193,1.3997955-1.2649193,3.680069,0,5.0696716c1.2547226,1.3966217,3.2951546,1.3966217,4.5539131,0l5.3561974-5.9469376
			h58.9971695l5.3532257,5.9469376c1.2513199,1.3966217,3.2985535,1.3966217,4.5532761,0
			c1.2655563-1.3896027,1.2655563-3.6698761,0-5.0696716L103.8958893,111.4201889z M98.6877441,105.1261673
			c-2.9446793,0-5.336235-2.38134-5.336235-5.3294296c0-2.9419174,2.3915558-5.3198547,5.336235-5.3198547
			c2.9514694,0,5.3362274,2.3779373,5.3362274,5.3198547C104.0239716,102.7448273,101.6392136,105.1261673,98.6877441,105.1261673
			 M50.4414063,70.9526138c-3.2584076,0,1.8586121-28.5947723,4.1926003-28.5947723h50.149128
			c2.5332336,0,8.483757,28.5947723,4.4963455,28.5947723H50.4414063z M55.8723717,99.7967377
			c0-2.9419174,2.3815689-5.3198547,5.3296432-5.3198547c2.9548759,0,5.3294334,2.3779373,5.3294334,5.3198547
			c0,2.9480896-2.3745575,5.3294296-5.3294334,5.3294296C58.2539406,105.1261673,55.8723717,102.7448273,55.8723717,99.7967377
			 M56.9516411,120.618927l5.7172966-6.3549576c2.786644,0.6440277,5.349823,0.6440277,7.2186279,0.6440277h5.8793716h8.4501953
			h5.8893509c1.8690186,0,4.4360275,0,7.2220306-0.6440277l5.7206955,6.3549576H56.9516411z"/>
	</g>
</g>
</svg>
